<svg xmlns="http://www.w3.org/2000/svg" width="1080" height="1920" viewBox="0 0 1080 1920" fill="none"><defs><linearGradient id="previewBg" x1="0" y1="0" x2="0" y2="1"><stop offset="0%" stop-color="#0b1020" /><stop offset="100%" stop-color="#1a1130" /></linearGradient><linearGradient id="cardSurface" x1="0.15" y1="0" x2="0.85" y2="1"><stop offset="0%" stop-color="#2c233f" /><stop offset="100%" stop-color="#171322" /></linearGradient><linearGradient id="cardShine" x1="0" y1="0" x2="1" y2="0.7"><stop offset="0%" stop-color="rgba(255,255,255,0.16)" /><stop offset="45%" stop-color="rgba(255,255,255,0.06)" /><stop offset="100%" stop-color="rgba(255,255,255,0)" /></linearGradient><linearGradient id="xpGradient" x1="0.2" y1="0" x2="0.8" y2="1"><stop offset="0%" stop-color="#ffd5b4" /><stop offset="52%" stop-color="#f4a166" /><stop offset="100%" stop-color="#df7f41" /></linearGradient><linearGradient id="medalGradient" x1="0.2" y1="0" x2="0.8" y2="1"><stop offset="0%" stop-color="#ffe27d" /><stop offset="100%" stop-color="#f2a54e" /></linearGradient><filter id="cardShadow" x="-20%" y="-24%" width="140%" height="170%"><feDropShadow dx="0" dy="24" stdDeviation="26" flood-color="rgba(3, 4, 10, 0.44)" /><feDropShadow dx="0" dy="0" stdDeviation="18" flood-color="rgba(115, 82, 255, 0.12)" /></filter><filter id="xpShadow" x="-30%" y="-40%" width="160%" height="190%"><feDropShadow dx="0" dy="14" stdDeviation="18" flood-color="rgba(66, 27, 5, 0.34)" /></filter><filter id="ambientBlur" x="-50%" y="-50%" width="200%" height="200%"><feGaussianBlur stdDeviation="48" /></filter></defs><g transform="translate(120 1040)"><ellipse
          cx="420"
          cy="232"
          rx="340"
          ry="180"
          fill="rgba(151, 92, 255, 0.34)"
          filter="url(#ambientBlur)"
        /><ellipse
          cx="510"
          cy="220"
          rx="217.6"
          ry="122.4"
          fill="rgba(244, 161, 102, 0.34)"
          filter="url(#ambientBlur)"
        /><ellipse
          cx="330"
          cy="252"
          rx="149.6"
          ry="72"
          fill="rgba(255, 214, 114, 0.2)"
          filter="url(#ambientBlur)"
        /><g transform="translate(596 -48) rotate(-7)" filter="url(#xpShadow)"><rect width="264" height="112" rx="56" fill="url(#xpGradient)" stroke="rgba(255, 232, 214, 0.56)" /><text
            x="132"
            y="64.96"
            fill="#4d2309"
            font-family="'Avenir Next', 'Helvetica Neue', Arial, sans-serif"
            font-size="42"
            font-weight="800"
            text-anchor="middle"
          >+16 XP</text></g><g filter="url(#cardShadow)"><rect
            width="840"
            height="470"
            rx="42"
            fill="url(#cardSurface)"
            stroke="rgba(255,255,255,0.16)"
          /><rect
            x="1"
            y="1"
            width="838"
            height="197"
            rx="41"
            fill="url(#cardShine)"
            opacity="0.82"
          /><rect
            x="12"
            y="12"
            width="816"
            height="446"
            rx="32"
            stroke="rgba(255,255,255,0.08)"
          /></g><g transform="translate(56 114)"><circle cx="52" cy="52" r="52" fill="url(#medalGradient)" stroke="rgba(255,240,215,0.65)" /><circle cx="52" cy="52" r="35.36" fill="rgba(255,255,255,0.16)" /><path
            d="M31.2 56.160000000000004 L46.800000000000004 70.72 L74.88 39.52"
            stroke="#5b2d0b"
            stroke-width="10"
            stroke-linecap="round"
            stroke-linejoin="round"
          /></g><g transform="translate(186 54)"><rect width="220" height="44" rx="22" fill="rgba(255,255,255,0.1)" stroke="rgba(255,255,255,0.14)" /><text
            x="110"
            y="29"
            fill="rgba(255,255,255,0.82)"
            font-family="'Avenir Next', 'Helvetica Neue', Arial, sans-serif"
            font-size="20"
            font-weight="800"
            letter-spacing="2"
            text-anchor="middle"
          >QUEST COMPLETE</text></g><text x="186" y="164" fill="#ffffff" font-family="'Avenir Next', 'Helvetica Neue', Arial, sans-serif" font-size="60" font-weight="800"><tspan x="186" dy="0">Deep work block</tspan></text><text x="186" y="252" fill="rgba(255,255,255,0.72)" font-family="'Avenir Next', 'Helvetica Neue', Arial, sans-serif" font-size="28" font-weight="500"><tspan x="186" dy="0">Protect uninterrupted time for your</tspan><tspan x="186" dy="38">highest-value work.</tspan></text><g transform="translate(186 360)"><rect width="116" height="54" rx="27" fill="rgba(139, 110, 255, 0.18)" stroke="rgba(170, 150, 255, 0.32)" /><text
          x="58"
          y="35.4"
          fill="rgba(255,255,255,0.9)"
          font-family="'Avenir Next', 'Helvetica Neue', Arial, sans-serif"
          font-size="24"
          font-weight="700"
          text-anchor="middle"
        >WORK</text></g><g transform="translate(318 360)"><rect width="141" height="54" rx="27" fill="rgba(243, 162, 100, 0.2)" stroke="rgba(255, 213, 180, 0.38)" /><text
          x="70.5"
          y="35.4"
          fill="rgba(255,255,255,0.9)"
          font-family="'Avenir Next', 'Helvetica Neue', Arial, sans-serif"
          font-size="24"
          font-weight="700"
          text-anchor="middle"
        >MEDIUM</text></g><g transform="translate(475 360)"><rect width="141" height="54" rx="27" fill="rgba(255,255,255,0.08)" stroke="rgba(255,255,255,0.14)" /><text
          x="70.5"
          y="35.4"
          fill="rgba(255,255,255,0.9)"
          font-family="'Avenir Next', 'Helvetica Neue', Arial, sans-serif"
          font-size="24"
          font-weight="700"
          text-anchor="middle"
        >90 MIN</text></g><text
          x="186"
          y="436"
          fill="rgba(255,255,255,0.72)"
          font-family="'Avenir Next', 'Helvetica Neue', Arial, sans-serif"
          font-size="20"
          font-weight="700"
          letter-spacing="0.6"
        >Featured template quest</text><g transform="translate(770 98) rotate(12)" opacity="0.94"><polygon points="0,-11 3.08,-3.08 11,0 3.08,3.08 0,11 -3.08,3.08 -11,0 -3.08,-3.08" fill="#ffd972" /><circle r="1.76" fill="white" opacity="0.85" /></g><g transform="translate(724 68) rotate(0)" opacity="0.82"><polygon points="0,-6 1.6800000000000002,-1.6800000000000002 6,0 1.6800000000000002,1.6800000000000002 0,6 -1.6800000000000002,1.6800000000000002 -6,0 -1.6800000000000002,-1.6800000000000002" fill="#ffd972" /><circle r="1.5" fill="white" opacity="0.85" /></g><g transform="translate(116 60) rotate(18)" opacity="0.8"><polygon points="0,-8 2.24,-2.24 8,0 2.24,2.24 0,8 -2.24,2.24 -8,0 -2.24,-2.24" fill="#ffd972" /><circle r="1.5" fill="white" opacity="0.85" /></g><g transform="translate(800 372) rotate(36)" opacity="0.8"><polygon points="0,-9 2.5200000000000005,-2.5200000000000005 9,0 2.5200000000000005,2.5200000000000005 0,9 -2.5200000000000005,2.5200000000000005 -9,0 -2.5200000000000005,-2.5200000000000005" fill="#ffd972" /><circle r="1.5" fill="white" opacity="0.85" /></g><g transform="translate(164 402) rotate(-12)" opacity="0.7"><polygon points="0,-5 1.4000000000000001,-1.4000000000000001 5,0 1.4000000000000001,1.4000000000000001 0,5 -1.4000000000000001,1.4000000000000001 -5,0 -1.4000000000000001,-1.4000000000000001" fill="#ffd972" /><circle r="1.5" fill="white" opacity="0.85" /></g></g></svg>