<svg xmlns="http://www.w3.org/2000/svg" width="1920" height="1080" viewBox="0 0 1920 1080" fill="none"><defs><linearGradient id="previewBg" x1="0" y1="0" x2="0" y2="1"><stop offset="0%" stop-color="#0b1020" /><stop offset="100%" stop-color="#1a1130" /></linearGradient><linearGradient id="cardSurface" x1="0.15" y1="0" x2="0.85" y2="1"><stop offset="0%" stop-color="#2c233f" /><stop offset="100%" stop-color="#171322" /></linearGradient><linearGradient id="cardShine" x1="0" y1="0" x2="1" y2="0.7"><stop offset="0%" stop-color="rgba(255,255,255,0.16)" /><stop offset="45%" stop-color="rgba(255,255,255,0.06)" /><stop offset="100%" stop-color="rgba(255,255,255,0)" /></linearGradient><linearGradient id="xpGradient" x1="0.2" y1="0" x2="0.8" y2="1"><stop offset="0%" stop-color="#ffd5b4" /><stop offset="52%" stop-color="#f4a166" /><stop offset="100%" stop-color="#df7f41" /></linearGradient><linearGradient id="medalGradient" x1="0.2" y1="0" x2="0.8" y2="1"><stop offset="0%" stop-color="#ffe27d" /><stop offset="100%" stop-color="#f2a54e" /></linearGradient><filter id="cardShadow" x="-20%" y="-24%" width="140%" height="170%"><feDropShadow dx="0" dy="24" stdDeviation="26" flood-color="rgba(3, 4, 10, 0.44)" /><feDropShadow dx="0" dy="0" stdDeviation="18" flood-color="rgba(115, 82, 255, 0.12)" /></filter><filter id="xpShadow" x="-30%" y="-40%" width="160%" height="190%"><feDropShadow dx="0" dy="14" stdDeviation="18" flood-color="rgba(66, 27, 5, 0.34)" /></filter><filter id="ambientBlur" x="-50%" y="-50%" width="200%" height="200%"><feGaussianBlur stdDeviation="48" /></filter></defs><rect width="1920" height="1080" fill="#00ff00" /><g transform="translate(180 628)"><ellipse
          cx="620"
          cy="152"
          rx="465"
          ry="120"
          fill="rgba(151, 92, 255, 0.34)"
          filter="url(#ambientBlur)"
        /><ellipse
          cx="710"
          cy="140"
          rx="297.6"
          ry="81.60000000000001"
          fill="rgba(244, 161, 102, 0.34)"
          filter="url(#ambientBlur)"
        /><ellipse
          cx="530"
          cy="172"
          rx="204.6"
          ry="48"
          fill="rgba(255, 214, 114, 0.2)"
          filter="url(#ambientBlur)"
        /><g transform="translate(1004 -42) rotate(-5)" filter="url(#xpShadow)"><rect width="238" height="96" rx="48" fill="url(#xpGradient)" stroke="rgba(255, 232, 214, 0.56)" /><text
            x="119"
            y="55.67999999999999"
            fill="#4d2309"
            font-family="'Avenir Next', 'Helvetica Neue', Arial, sans-serif"
            font-size="36"
            font-weight="800"
            text-anchor="middle"
          >+16 XP</text></g><g filter="url(#cardShadow)"><rect
            width="1240"
            height="316"
            rx="36"
            fill="url(#cardSurface)"
            stroke="rgba(255,255,255,0.16)"
          /><rect
            x="1"
            y="1"
            width="1238"
            height="133"
            rx="35"
            fill="url(#cardShine)"
            opacity="0.82"
          /><rect
            x="12"
            y="12"
            width="1216"
            height="292"
            rx="26"
            stroke="rgba(255,255,255,0.08)"
          /></g><g transform="translate(52 98)"><circle cx="44" cy="44" r="44" fill="url(#medalGradient)" stroke="rgba(255,240,215,0.65)" /><circle cx="44" cy="44" r="29.92" fill="rgba(255,255,255,0.16)" /><path
            d="M26.4 47.52 L39.6 59.84 L63.36 33.44"
            stroke="#5b2d0b"
            stroke-width="8"
            stroke-linecap="round"
            stroke-linejoin="round"
          /></g><g transform="translate(164 42)"><rect width="204" height="40" rx="20" fill="rgba(255,255,255,0.1)" stroke="rgba(255,255,255,0.14)" /><text
            x="102"
            y="27"
            fill="rgba(255,255,255,0.82)"
            font-family="'Avenir Next', 'Helvetica Neue', Arial, sans-serif"
            font-size="18"
            font-weight="800"
            letter-spacing="2"
            text-anchor="middle"
          >QUEST COMPLETE</text></g><text x="164" y="138" fill="#ffffff" font-family="'Avenir Next', 'Helvetica Neue', Arial, sans-serif" font-size="58" font-weight="800"><tspan x="164" dy="0">Deep work block</tspan></text><text x="164" y="198" fill="rgba(255,255,255,0.72)" font-family="'Avenir Next', 'Helvetica Neue', Arial, sans-serif" font-size="25" font-weight="500"><tspan x="164" dy="0">Protect uninterrupted time for your highest-value work.</tspan></text><g transform="translate(164 234)"><rect width="116" height="48" rx="24" fill="rgba(139, 110, 255, 0.18)" stroke="rgba(170, 150, 255, 0.32)" /><text
          x="58"
          y="31"
          fill="rgba(255,255,255,0.9)"
          font-family="'Avenir Next', 'Helvetica Neue', Arial, sans-serif"
          font-size="20"
          font-weight="700"
          text-anchor="middle"
        >WORK</text></g><g transform="translate(294 234)"><rect width="117" height="48" rx="24" fill="rgba(243, 162, 100, 0.2)" stroke="rgba(255, 213, 180, 0.38)" /><text
          x="58.5"
          y="31"
          fill="rgba(255,255,255,0.9)"
          font-family="'Avenir Next', 'Helvetica Neue', Arial, sans-serif"
          font-size="20"
          font-weight="700"
          text-anchor="middle"
        >MEDIUM</text></g><g transform="translate(425 234)"><rect width="117" height="48" rx="24" fill="rgba(255,255,255,0.08)" stroke="rgba(255,255,255,0.14)" /><text
          x="58.5"
          y="31"
          fill="rgba(255,255,255,0.9)"
          font-family="'Avenir Next', 'Helvetica Neue', Arial, sans-serif"
          font-size="20"
          font-weight="700"
          text-anchor="middle"
        >90 MIN</text></g><text
          x="980"
          y="274"
          fill="rgba(255,255,255,0.72)"
          font-family="'Avenir Next', 'Helvetica Neue', Arial, sans-serif"
          font-size="18"
          font-weight="700"
          letter-spacing="0.6"
        >Featured template quest</text><g transform="translate(1152 56) rotate(12)" opacity="0.94"><polygon points="0,-9 2.5200000000000005,-2.5200000000000005 9,0 2.5200000000000005,2.5200000000000005 0,9 -2.5200000000000005,2.5200000000000005 -9,0 -2.5200000000000005,-2.5200000000000005" fill="#ffd972" /><circle r="1.5" fill="white" opacity="0.85" /></g><g transform="translate(1108 24) rotate(0)" opacity="0.82"><polygon points="0,-5 1.4000000000000001,-1.4000000000000001 5,0 1.4000000000000001,1.4000000000000001 0,5 -1.4000000000000001,1.4000000000000001 -5,0 -1.4000000000000001,-1.4000000000000001" fill="#ffd972" /><circle r="1.5" fill="white" opacity="0.85" /></g><g transform="translate(120 32) rotate(18)" opacity="0.8"><polygon points="0,-7 1.9600000000000002,-1.9600000000000002 7,0 1.9600000000000002,1.9600000000000002 0,7 -1.9600000000000002,1.9600000000000002 -7,0 -1.9600000000000002,-1.9600000000000002" fill="#ffd972" /><circle r="1.5" fill="white" opacity="0.85" /></g><g transform="translate(1160 258) rotate(36)" opacity="0.8"><polygon points="0,-8 2.24,-2.24 8,0 2.24,2.24 0,8 -2.24,2.24 -8,0 -2.24,-2.24" fill="#ffd972" /><circle r="1.5" fill="white" opacity="0.85" /></g><g transform="translate(154 270) rotate(-12)" opacity="0.7"><polygon points="0,-5 1.4000000000000001,-1.4000000000000001 5,0 1.4000000000000001,1.4000000000000001 0,5 -1.4000000000000001,1.4000000000000001 -5,0 -1.4000000000000001,-1.4000000000000001" fill="#ffd972" /><circle r="1.5" fill="white" opacity="0.85" /></g></g></svg>